<?xml version="1.0" encoding="utf-8"?>
<!-- Generator: Adobe Illustrator 17.0.0, SVG Export Plug-In . SVG Version: 6.00 Build 0)  -->
<!DOCTYPE svg PUBLIC "-//W3C//DTD SVG 1.1//EN" "http://www.w3.org/Graphics/SVG/1.1/DTD/svg11.dtd">
<svg version="1.1" id="Layer_1" xmlns="http://www.w3.org/2000/svg" xmlns:xlink="http://www.w3.org/1999/xlink" x="0px" y="0px"
	 width="24px" height="24px" viewBox="0 0 24 24" enable-background="new 0 0 24 24" xml:space="preserve">
<title></title>
<g>
	<title>background</title>
	<rect id="canvas_background" x="-1" y="-1" fill="none" width="582" height="402"/>
</g>
<g>
	<title>Layer 1</title>
	<path id="svg_1" fill="#6CD9FF" d="M15.5,3h-7C5.462,3,3,5.462,3,8.5v7C3,18.538,5.462,21,8.5,21h7c3.038,0,5.5-2.462,5.5-5.5v-7
		C21,5.462,18.538,3,15.5,3z M19.5,15.5c-0.003,2.208-1.792,3.997-4,4h-7c-2.208-0.003-3.997-1.792-4-4v-7
		c0.002-2.208,1.792-3.998,4-4h7c2.208,0.002,3.998,1.792,4,4V15.5z"/>
	<path id="svg_2" fill="#6CD9FF" d="M12,7.5c-2.485,0-4.5,2.015-4.5,4.5s2.015,4.5,4.5,4.5s4.5-2.015,4.5-4.5S14.485,7.5,12,7.5z
		 M12,15c-1.657,0-3-1.343-3-3s1.343-3,3-3s3,1.343,3,3C14.998,13.656,13.656,14.998,12,15z"/>
	<circle id="svg_3" fill="#6CD9FF" cx="16.7" cy="7.3" r="1"/>
</g>
</svg>
