<?xml version="1.0" encoding="utf-8"?>
<!-- Generator: Adobe Illustrator 17.0.0, SVG Export Plug-In . SVG Version: 6.00 Build 0)  -->
<!DOCTYPE svg PUBLIC "-//W3C//DTD SVG 1.1//EN" "http://www.w3.org/Graphics/SVG/1.1/DTD/svg11.dtd">
<svg version="1.1" id="Слой_1" xmlns="http://www.w3.org/2000/svg" xmlns:xlink="http://www.w3.org/1999/xlink" x="0px" y="0px"
	 width="76.75px" height="76.75px" viewBox="0 23.25 76.75 76.75" enable-background="new 0 23.25 76.75 76.75"
	 xml:space="preserve">
<g>
	<path id="XMLID_8_" fill="#FFFFFF" d="M37.75,98.8c-0.647,0-1.583-0.935-1.583-0.935C8.829,66.426,12.426,50.959,12.426,50.959
		S20.34,76.21,37.75,76.282"/>
	<path fill="#FFFFFF" d="M37.75,25.635c-13.986,0-25.324,11.338-25.324,25.324c0,13.986,11.338,25.324,25.324,25.324
		c13.986,0,25.324-11.338,25.324-25.324C63.074,36.973,51.736,25.635,37.75,25.635z M37.75,65.923
		c-8.264,0-14.964-6.7-14.964-14.964s6.7-14.964,14.964-14.964s14.964,6.7,14.964,14.964S46.014,65.923,37.75,65.923z"/>
	<path fill="#FFFFFF" d="M63.074,50.959c0,0-7.914,25.252-25.324,25.324V98.8c0.648,0,1.583-0.935,1.583-0.935
		C66.671,66.426,63.074,50.959,63.074,50.959z"/>
</g>
</svg>
