<?xml version="1.0" encoding="utf-8"?>
<!-- Generator: Adobe Illustrator 17.0.0, SVG Export Plug-In . SVG Version: 6.00 Build 0)  -->
<!DOCTYPE svg PUBLIC "-//W3C//DTD SVG 1.1//EN" "http://www.w3.org/Graphics/SVG/1.1/DTD/svg11.dtd">
<svg version="1.1" id="Слой_1" xmlns="http://www.w3.org/2000/svg" xmlns:xlink="http://www.w3.org/1999/xlink" x="0px" y="0px"
	 width="76.75px" height="50.875px" viewBox="0 25.875 76.75 50.875" enable-background="new 0 25.875 76.75 50.875"
	 xml:space="preserve">
<path id="mail" fill="#fff" d="M64.563,28.891H12.438c-4.798,0-8.688,3.892-8.688,8.688v28.234c0,4.798,3.89,8.688,8.688,8.688
	h52.125c4.798,0,8.688-3.89,8.688-8.688V37.578C73.25,32.783,69.36,28.891,64.563,28.891z M8.094,40.293l15.201,11.402L8.094,63.098
	V40.293z M68.906,65.813c0,2.398-1.95,4.344-4.344,4.344H12.438c-2.396,0-4.344-1.946-4.344-4.344l17.01-12.76l9.487,7.117
	c1.158,0.864,2.532,1.303,3.909,1.303c1.375,0,2.75-0.437,3.907-1.303l9.489-7.117L68.906,65.813L68.906,65.813z M68.906,63.098
	L53.703,51.695l15.203-11.402V63.098z M41.104,58.432c-0.758,0.569-1.657,0.869-2.604,0.869c-0.947,0-1.848-0.302-2.606-0.869
	l-8.981-6.737l-1.809-1.357L8.094,37.58v-0.002c0-2.396,1.948-4.344,4.344-4.344h52.125c2.393,0,4.344,1.948,4.344,4.344
	L41.104,58.432z"/>
</svg>
