<?xml version="1.0" encoding="utf-8"?>
<!-- Generator: Adobe Illustrator 17.0.0, SVG Export Plug-In . SVG Version: 6.00 Build 0)  -->
<!DOCTYPE svg PUBLIC "-//W3C//DTD SVG 1.1//EN" "http://www.w3.org/Graphics/SVG/1.1/DTD/svg11.dtd">
<svg version="1.1" id="Layer_1" xmlns:svgjs="http://svgjs.com/svgjs"
	 xmlns="http://www.w3.org/2000/svg" xmlns:xlink="http://www.w3.org/1999/xlink" x="0px" y="0px" width="74.5px" height="74.5px"
	 viewBox="0 0 74.5 74.5" enable-background="new 0 0 74.5 74.5" xml:space="preserve">
<g>
	<g>
		<g>
			<path fill="#fff" d="M33.059,42.454c-0.296-0.324-0.717-0.522-1.157-0.543c-0.439-0.02-0.878,0.139-1.202,0.435
				c-0.324,0.296-0.523,0.718-0.543,1.157c-0.02,0.44,0.139,0.878,0.435,1.202c0.298,0.326,0.718,0.524,1.157,0.544
				c0.439,0.02,0.878-0.139,1.202-0.437c0.326-0.296,0.523-0.717,0.543-1.157C33.514,43.217,33.357,42.779,33.059,42.454z"/>
		</g>
	</g>
	<g>
		<g>
			<path fill="#fff" d="M68.894,59.205L56.693,45.839c-1.624-1.779-4.29-2.15-6.338-0.882l-8.413,5.207
				c-0.683,0.422-1.571,0.299-2.113-0.294l-2.575-2.821c-0.622-0.681-1.678-0.729-2.36-0.107c-0.681,0.622-0.729,1.678-0.107,2.36
				l2.575,2.821c1.624,1.779,4.29,2.15,6.338,0.882l8.413-5.207c0.682-0.423,1.571-0.299,2.113,0.294l12.201,13.365
				c0.621,0.68,0.573,1.739-0.108,2.36c-8.57,7.824-21.908,7.217-29.732-1.354L11.812,35.324c-3.79-4.152-5.736-9.531-5.481-15.147
				c0.256-5.616,2.683-10.796,6.835-14.586c0.33-0.301,0.756-0.455,1.202-0.435c0.446,0.02,0.857,0.213,1.158,0.542l12.201,13.365
				c0.541,0.593,0.584,1.489,0.101,2.131l-5.95,7.905c-1.449,1.924-1.322,4.612,0.302,6.392l3.871,4.24
				c0.622,0.681,1.678,0.729,2.36,0.107c0.681-0.622,0.729-1.678,0.107-2.36l-3.871-4.24c-0.541-0.593-0.584-1.489-0.101-2.13
				l5.95-7.905c1.449-1.925,1.321-4.613-0.303-6.392L17.993,3.447c-1.863-2.041-5.039-2.185-7.079-0.322
				C0.983,12.19,0.279,27.645,9.345,37.576L34.12,64.715c4.533,4.965,10.663,7.624,16.901,7.908
				c6.238,0.284,12.585-1.807,17.55-6.34C70.612,64.421,70.757,61.245,68.894,59.205z"/>
		</g>
	</g>
	<g>
		<g>
			<path fill="#fff" d="M25.213,26.964l-9.654-10.575c-0.622-0.681-1.678-0.729-2.36-0.107c-0.681,0.622-0.729,1.679-0.107,2.36
				l9.654,10.575c0.311,0.341,0.73,0.523,1.158,0.542c0.427,0.019,0.861-0.124,1.202-0.435
				C25.786,28.702,25.835,27.645,25.213,26.964z"/>
		</g>
	</g>
	<g>
		<g>
			<path fill="#fff" d="M62.162,67.438L52.004,56.311c-0.622-0.681-1.678-0.729-2.36-0.107c-0.681,0.622-0.729,1.679-0.107,2.36
				l10.158,11.127c0.311,0.341,0.73,0.523,1.158,0.542c0.427,0.019,0.861-0.124,1.202-0.435
				C62.736,69.176,62.784,68.12,62.162,67.438z"/>
		</g>
	</g>
</g>
</svg>
