<?xml version="1.0" encoding="utf-8"?>
<!-- Generator: Adobe Illustrator 17.0.0, SVG Export Plug-In . SVG Version: 6.00 Build 0)  -->
<!DOCTYPE svg PUBLIC "-//W3C//DTD SVG 1.1//EN" "http://www.w3.org/Graphics/SVG/1.1/DTD/svg11.dtd">
<svg version="1.1" id="Layer_1" xmlns="http://www.w3.org/2000/svg" xmlns:xlink="http://www.w3.org/1999/xlink" x="0px" y="0px"
	 width="1920px" height="1087.893px" viewBox="0 0 1920 1087.893" enable-background="new 0 0 1920 1087.893" xml:space="preserve">
<path fill="#FFFFFF" d="M-0.876,1087.506c0-3.557,0-7.114,0-10.672c1.255-1.094,2.7-0.678,4.102-0.493
	c2.727,0.36,5.452,0.739,8.185,1.047c1.229,0.342,2.467,0.629,3.762,0.459c1.099-0.022,2.188,0.067,3.267,0.278
	c1.584,0.552,3.216,0.475,4.852,0.356c1.518-0.032,3.032-0.005,4.531,0.275c2.265,0.703,4.576,0.481,6.884,0.339
	c2.853,0.002,5.711-0.19,8.549,0.276c2.157,0.717,4.388,0.491,6.596,0.496c6.76,0.017,13.521-0.005,20.281,0.015
	c1.451,0.004,2.875-0.092,4.266-0.521c3.492-0.511,7.006-0.26,10.511-0.287c2.753,0.162,5.511,0.426,8.228-0.34
	c1.942-0.353,3.903-0.308,5.862-0.286c2.081,0.142,4.162,0.297,6.198-0.362c1.687-0.323,3.394-0.3,5.1-0.288
	c1.649,0.147,3.292,0.202,4.893-0.348c1.266-0.258,2.548-0.298,3.833-0.29c1.434,0.129,2.856,0.108,4.239-0.371
	c1.245-0.257,2.507-0.294,3.772-0.29c1.415,0.115,2.822,0.118,4.187-0.363c1.052-0.223,2.117-0.287,3.188-0.29
	c1.396,0.093,2.787,0.112,4.134-0.367c1.033-0.221,2.08-0.281,3.132-0.288c1.197,0.086,2.383,0.053,3.532-0.356
	c0.84-0.189,1.693-0.266,2.551-0.286c1.187,0.063,2.361,0.017,3.499-0.386c0.845-0.19,1.702-0.27,2.566-0.289
	c1.22,0.104,2.411-0.054,3.578-0.425c33.112-3.995,66.029-9.222,98.725-15.799c35.203-7.081,70.113-15.395,104.729-24.957
	c31.075-8.583,61.89-18.018,92.398-28.414c46.726-15.922,92.737-33.704,137.883-53.712c12.901-5.718,25.914-11.225,38.525-17.527
	c11.732-5.863,23.552-11.506,35.466-16.976c17.343-7.963,35.585-13.273,53.897-18.379c24.767-6.907,49.914-11.986,75.372-15.531
	c4.946-0.689,9.89-1.457,14.887-1.739c1.23,0.123,2.441,0.041,3.621-0.363c1.046-0.223,2.106-0.286,3.172-0.292
	c1.251,0.142,2.465-0.052,3.661-0.418c1.452-0.281,2.919-0.306,4.39-0.273c1.678,0.14,3.341,0.1,4.961-0.44
	c1.94-0.324,3.892-0.343,5.849-0.238c3.391-0.031,6.805,0.468,10.151-0.494c5.045-0.519,10.1-0.269,15.154-0.227
	c6.841,0.21,13.68,0.138,20.519,0.013c5.718-0.043,11.441-0.344,17.154,0.197c3.588,1.021,7.252,0.458,10.886,0.496
	c2.612-0.092,5.224-0.174,7.823,0.219c2.259,0.753,4.586,0.533,6.901,0.462c1.929-0.081,3.855-0.087,5.766,0.238
	c1.623,0.535,3.29,0.584,4.975,0.435c1.682-0.051,3.362-0.048,5.025,0.254c1.398,0.444,2.829,0.58,4.289,0.431
	c1.274-0.04,2.54,0.027,3.794,0.268c1.369,0.452,2.777,0.53,4.205,0.412c1.088-0.024,2.167,0.065,3.235,0.277
	c1.228,0.415,2.489,0.491,3.772,0.357c21.499,1.937,42.609,6.205,63.694,10.616c26.406,5.524,52.434,12.822,79.085,17.168
	c27.937,4.556,55.885,9.082,84.02,12.315c6.173,0.709,12.339,1.492,18.518,2.142c1.225,0.328,2.453,0.645,3.744,0.48
	c1.073-0.025,2.136,0.065,3.188,0.275c1.167,0.368,2.361,0.517,3.585,0.398c1.056-0.005,2.104,0.067,3.14,0.279
	c1.175,0.384,2.379,0.498,3.609,0.371c1.257-0.011,2.509,0.031,3.745,0.277c1.384,0.468,2.807,0.508,4.246,0.37
	c1.48-0.026,2.956-0.007,4.417,0.273c1.611,0.548,3.266,0.519,4.932,0.376c1.726-0.033,3.45-0.044,5.157,0.271
	c2.272,0.714,4.592,0.496,6.909,0.352c3.039,0.014,6.085-0.208,9.111,0.265c4.647,1.019,9.345,0.378,14.021,0.414
	c3.527-0.037,7.06-0.253,10.576,0.233c4.08,0.971,8.205,0.486,12.319,0.378c11.582-0.06,23.162-0.083,34.741-0.007
	c3.221,0.19,6.447,0.493,9.637-0.312c2.153-0.387,4.327-0.3,6.498-0.291c1.878,0.165,3.753,0.266,5.586-0.337
	c1.471-0.291,2.961-0.3,4.452-0.29c1.441,0.139,2.871,0.137,4.262-0.35c1.071-0.224,2.156-0.294,3.247-0.288
	c1.445,0.131,2.869,0.041,4.258-0.419c2.749-0.248,5.464-0.8,8.226-0.935c1.284,0.161,2.535-0.004,3.763-0.397
	c22.265-2.968,44.331-7.021,66.093-12.586c20.558-5.257,40.922-11.233,61.332-17.035c40.072-11.39,79.864-23.739,119.953-35.063
	c18.707-5.284,37.145-11.466,56.004-16.243c20.375-5.161,40.878-9.48,61.759-12.089c11.896-1.487,23.734-3.474,35.693-4.422
	c7.626-0.604,15.289-0.594,22.934-0.875c1.192-0.044,2.438,0.359,3.575-0.325c0.445,0,0.889,0,1.334,0
	c1.601,0.735,3.294,0.153,4.935,0.341c1.922,0,3.842-0.001,5.763,0c3.101-0.208,6.232,0.431,9.312-0.341c5.114,0,10.227,0,15.34,0
	c3.335,0.554,6.67,0.554,10.005,0c0.445,0,0.889,0,1.334,0c1.556,0.544,3.113,0.544,4.669,0c0.889,0,1.779,0,2.668,0
	c4.938,0.663,9.921,0.522,14.874,0.604c12.1,0.199,24.128,1.188,36.134,2.573c1.733,0.2,3.582,0.204,5.017,1.492
	c0,85.372,0,170.744,0,256.117c-1.155,0.616-2.402,0.312-3.602,0.312c-637.894,0.015-1275.788,0.015-1913.682,0
	C1.52,1087.818,0.276,1088.12-0.876,1087.506z"/>
</svg>
