<?xml version="1.0" encoding="utf-8"?>
<!-- Generator: Adobe Illustrator 17.0.0, SVG Export Plug-In . SVG Version: 6.00 Build 0)  -->
<!DOCTYPE svg PUBLIC "-//W3C//DTD SVG 1.1//EN" "http://www.w3.org/Graphics/SVG/1.1/DTD/svg11.dtd">
<svg version="1.1" id="Слой_1" xmlns="http://www.w3.org/2000/svg" xmlns:xlink="http://www.w3.org/1999/xlink" x="0px" y="0px"
	 width="76.75px" height="76.75px" viewBox="0 23.25 76.75 76.75" enable-background="new 0 23.25 76.75 76.75"
	 xml:space="preserve">
<path fill="#FFFFFF" d="M16.553,57.163c5.93,11.654,15.463,21.187,27.138,27.117l9.06-9.08c1.132-1.132,2.759-1.462,4.18-1.009
	c4.612,1.524,9.574,2.347,14.701,2.347c2.286,0,4.118,1.833,4.118,4.118v14.413c0,2.286-1.833,4.118-4.118,4.118
	c-38.669,0-70.007-31.338-70.007-70.007c0-2.286,1.853-4.118,4.118-4.118h14.413c2.286,0,4.118,1.833,4.118,4.118
	c0,5.127,0.824,10.089,2.347,14.701c0.453,1.421,0.124,3.047-1.009,4.18L16.553,57.163z"/>
</svg>
