<?xml version="1.0" encoding="utf-8"?>
<!-- Generator: Adobe Illustrator 17.0.0, SVG Export Plug-In . SVG Version: 6.00 Build 0)  -->
<!DOCTYPE svg PUBLIC "-//W3C//DTD SVG 1.1//EN" "http://www.w3.org/Graphics/SVG/1.1/DTD/svg11.dtd">
<svg version="1.1" id="Layer_1" xmlns="http://www.w3.org/2000/svg" xmlns:xlink="http://www.w3.org/1999/xlink" x="0px" y="0px"
	 width="90px" height="90px" viewBox="0 0 90 90" enable-background="new 0 0 90 90" xml:space="preserve">
<g>
	<title>background</title>
	<rect id="canvas_background" x="-1" y="-1" fill="none" width="582" height="402"/>
</g>
<g>
	<title>Layer 1</title>
	<path id="YouTube" fill="#62C4AF" d="M70.9,65.661H66v-2.9c0-1.3,1-2.3,2.3-2.3h0.3c1.3,0,2.3,1,2.3,2.3
		C70.9,62.761,70.9,65.661,70.9,65.661z M52.4,59.561c-1.3,0-2.3,0.8-2.3,1.9v14c0,1,1,1.9,2.3,1.9s2.3-0.8,2.3-1.9v-14
		C54.7,60.361,53.7,59.561,52.4,59.561z M82.5,51.761v26.5c0,6.4-5.5,11.6-12.3,11.6H19.8c-6.8,0-12.3-5.2-12.3-11.6v-26.5
		c0-6.4,5.5-11.6,12.3-11.6h50.5C77,40.161,82.5,45.361,82.5,51.761z M23.1,81.161v-28h6.3v-4.1H12.7v4.1h5.2v28H23.1z M41.9,57.361
		h-5.2v14.9c0,2.2,0.1,3.2,0,3.6c-0.4,1.2-2.3,2.4-3.1,0.1c-0.1-0.4,0-1.6,0-3.6v-15h-5.2v14.8c0,2.3-0.1,4,0,4.7
		c0.1,1.4,0.1,2.9,1.3,3.8c2.3,1.7,6.8-0.3,8-2.7v3.1h4.2V57.361L41.9,57.361z M58.6,74.461v-12.4c0-4.7-3.5-7.6-8.4-3.7v-9.2H45
		v31.9l4.3-0.1l0.4-2C55.1,83.961,58.6,80.461,58.6,74.461z M74.9,72.861H71c0,0.2,0,0.3,0,0.5v2.2c0,1.2-1,2.1-2.1,2.1h-0.8
		c-1.2,0-2.1-1-2.1-2.1v-0.2v-2.5v-3h9v-3.4c0-2.5-0.1-4.9-0.3-6.3c-0.6-4.5-6.9-5.2-10.1-2.9c-1,0.7-1.7,1.7-2.2,2.9
		c-0.4,1.3-0.7,3-0.7,5.3v7.4C61.7,85.161,76.7,83.461,74.9,72.861z M54.8,32.561c0.3,0.7,0.7,1.2,1.3,1.6c0.6,0.4,1.3,0.6,2.1,0.6
		s1.4-0.2,2-0.6c0.6-0.4,1.1-1,1.5-1.9l-0.1,2h5.8v-24.7h-4.6v19.3c0,1-0.9,1.9-1.9,1.9s-1.9-0.9-1.9-1.9v-19.3h-4.8v16.7
		c0,2.1,0,3.5,0.1,4.3C54.4,31.261,54.6,31.961,54.8,32.561z M37.2,18.661c0-2.4,0.2-4.2,0.6-5.6c0.4-1.3,1.1-2.4,2.1-3.2
		s2.3-1.2,3.9-1.2c1.3,0,2.5,0.3,3.5,0.8s1.7,1.2,2.2,2s0.9,1.7,1.1,2.6c0.2,0.9,0.3,2.2,0.3,4v6.3c0,2.3-0.1,4-0.3,5.1
		s-0.6,2.1-1.1,3c-0.6,0.9-1.3,1.6-2.2,2.1c-0.9,0.4-2,0.7-3.2,0.7c-1.3,0-2.4-0.2-3.4-0.6c-0.9-0.4-1.6-1-2.1-1.7
		c-0.5-0.8-0.9-1.7-1.1-2.8c-0.2-1.1-0.3-2.7-0.3-4.9V18.661C37.2,18.661,37.2,18.661,37.2,18.661z M41.8,28.461
		c0,1.4,1,2.5,2.3,2.5s2.3-1.1,2.3-2.5v-13.2c0-1.4-1-2.5-2.3-2.5s-2.3,1.1-2.3,2.5V28.461z M25.7,35.061h5.5v-19l6.5-16.2h-6
		l-3.4,12.1l-3.6-12.1h-5.9l6.9,16.3C25.7,16.161,25.7,35.061,25.7,35.061z"/>
</g>
</svg>
